<?xml version="1.0" encoding="utf-8"?>
<!-- Generator: Adobe Illustrator 19.2.1, SVG Export Plug-In . SVG Version: 6.00 Build 0)  -->
<svg version="1.1" id="Layer_1" xmlns="http://www.w3.org/2000/svg" xmlns:xlink="http://www.w3.org/1999/xlink" x="0px" y="0px"
	 viewBox="0 0 141.9 186.8" style="enable-background:new 0 0 141.9 186.8;" xml:space="preserve">
<style type="text/css">
	.st0{fill:#1183A4;stroke:#1183A4;stroke-width:2;stroke-miterlimit:10;}
</style>
<title>education</title>
<g>
	<polygon class="st0" points="32.1,119.2 26.6,113.8 23,117.8 32.5,127 49.2,106.8 45.1,103.3 	"/>
	<polygon class="st0" points="32.1,150.1 26.6,144.7 23,148.6 32.5,157.9 49.2,137.7 45.1,134.2 	"/>
	<rect x="59.4" y="108.1" class="st0" width="60.2" height="4"/>
	<rect x="59.4" y="118.2" class="st0" width="60.2" height="4"/>
	<rect x="59.4" y="139" class="st0" width="60.2" height="4"/>
	<rect x="59.4" y="149.1" class="st0" width="60.2" height="4"/>
	<path class="st0" d="M126.7,2.2H15.8C8.3,2.2,2.1,8.4,2.1,16v157c0,7.6,6.2,13.8,13.8,13.8h110.9c7.6,0,13.8-6.2,13.8-13.8V16
		C140.5,8.4,134.3,2.2,126.7,2.2z M136.5,173c0,5.4-4.4,9.7-9.7,9.7H15.8c-5.4,0-9.7-4.4-9.7-9.7V16c0-5.4,4.4-9.7,9.7-9.7h110.9
		c5.4,0,9.7,4.4,9.7,9.7V173z"/>
	<path class="st0" d="M62.2,46.3l14.2,17.8c-1.7,1.7-2.8,4-2.8,6.5c0,5,4.1,9.1,9.1,9.1c5,0,9.1-4.1,9.1-9.1c0-2.1-0.8-4.1-2-5.6
		l16-18.8c1.1,0.5,2.3,0.8,3.6,0.8c5,0,9.1-4.1,9.1-9.1s-4.1-9.1-9.1-9.1s-9.1,4.1-9.1,9.1c0,2.3,0.9,4.4,2.3,6L86.7,62.4
		c-1.2-0.6-2.5-1-4-1c-1,0-2,0.2-2.9,0.5L65.5,44c1.5-1.6,2.4-3.8,2.4-6.2c0-5-4.1-9.1-9.1-9.1s-9.1,4.1-9.1,9.1
		c0,2.3,0.9,4.4,2.3,6L36.1,62.4c-1.2-0.6-2.5-1-4-1c-5,0-9.1,4.1-9.1,9.1s4.1,9.1,9.1,9.1s9.1-4.1,9.1-9.1c0-2.1-0.8-4.1-2-5.6
		l16-18.8c1.1,0.5,2.3,0.8,3.6,0.8C60,46.9,61.1,46.7,62.2,46.3z M109.5,32.7c2.8,0,5.1,2.3,5.1,5.1c0,2.8-2.3,5.1-5.1,5.1
		c-2.8,0-5.1-2.3-5.1-5.1C104.4,35,106.7,32.7,109.5,32.7z M87.8,70.6c0,2.8-2.3,5.1-5.1,5.1s-5.1-2.3-5.1-5.1s2.3-5.1,5.1-5.1
		S87.8,67.8,87.8,70.6z M58.8,32.7c2.8,0,5.1,2.3,5.1,5.1c0,2.8-2.3,5.1-5.1,5.1s-5.1-2.3-5.1-5.1C53.7,35,56,32.7,58.8,32.7z
		 M32.1,75.7c-2.8,0-5.1-2.3-5.1-5.1s2.3-5.1,5.1-5.1s5.1,2.3,5.1,5.1C37.2,73.4,34.9,75.7,32.1,75.7z"/>
</g>
</svg>
